<svg width="92" height="56" viewBox="0 0 92 56" fill="none" xmlns="http://www.w3.org/2000/svg">
<path d="M63.6443 34.8862C62.4614 35.1573 59.3482 35.3133 59.3482 35.3133L58.9539 36.5455C58.9539 36.5455 60.5064 36.414 61.64 36.529C61.64 36.529 62.0096 36.488 62.0507 36.948C62.0671 37.3751 62.0178 37.8351 62.0178 37.8351C62.0178 37.8351 61.9932 38.1144 61.5989 38.1801C61.1718 38.254 58.2475 38.3608 58.2475 38.3608L57.7711 39.9626C57.7711 39.9626 57.5986 40.3323 57.9928 40.2255C58.3625 40.1269 61.4264 39.5519 61.8289 39.634C62.2561 39.7408 62.7325 40.3076 62.5928 40.8333C62.4286 41.474 59.3728 43.429 57.5082 43.2894C57.5082 43.2894 56.5307 43.3551 55.7011 42.0326C54.9289 40.7758 55.9968 38.3855 55.9968 38.3855C55.9968 38.3855 55.5121 37.2683 55.8653 36.8987C55.8653 36.8987 56.0789 36.7098 56.6868 36.6605L57.4343 35.108C57.4343 35.108 56.58 35.1655 56.0707 34.5412C55.5943 33.9415 55.5614 33.6705 55.9229 33.5062C56.3089 33.3173 59.8657 32.6683 62.3136 32.7505C62.3136 32.7505 63.1679 32.6683 63.8989 34.1469C63.8907 34.1469 64.2521 34.7465 63.6443 34.8862ZM54.4361 40.8498C54.1239 41.589 53.2943 42.3776 52.2675 41.8848C51.2489 41.3919 49.6307 38.0815 49.6307 38.0815C49.6307 38.0815 49.0146 36.8494 48.8996 36.874C48.8996 36.874 48.7682 36.6358 48.6861 37.983C48.6039 39.3301 48.7025 41.9505 48.1686 42.3612C47.6593 42.7719 47.0432 42.6076 46.7228 42.123C46.4353 41.6465 46.3121 40.513 46.4682 38.5251C46.6571 36.5373 47.1171 34.418 47.7086 33.7526C48.3 33.0955 48.7764 33.5719 48.9571 33.7444C48.9571 33.7444 49.7457 34.459 51.0518 36.5619L51.2818 36.948C51.2818 36.948 52.4646 38.9358 52.5878 38.9276C52.5878 38.9276 52.6864 39.018 52.7686 38.9523C52.8918 38.9194 52.8425 38.2787 52.8425 38.2787C52.8425 38.2787 52.5961 36.1183 51.52 32.4548C51.52 32.4548 51.3557 31.9948 51.4707 31.5676C51.5775 31.1323 52.0128 31.3376 52.0128 31.3376C52.0128 31.3376 53.6886 32.1755 54.4936 34.9026C55.2904 37.6544 54.7482 40.1105 54.4361 40.8498ZM46.2053 33.843C46.0657 34.1223 45.9836 34.5248 45.2771 34.6315C45.2771 34.6315 38.5168 35.0915 38.1964 35.568C38.1964 35.568 37.9582 35.8473 38.3278 35.9294C38.6975 36.0033 40.2254 36.2087 40.9646 36.2498C41.7532 36.258 44.4146 36.2826 45.3675 37.4737C45.3675 37.4737 45.9343 38.0405 45.9096 39.3219C45.885 40.6362 45.655 41.0962 45.1457 41.5726C44.6118 42.0162 40.0282 44.0698 37.0711 40.9155C37.0711 40.9155 35.7075 39.3958 37.5393 38.2458C37.5393 38.2458 38.8618 37.449 42.2214 38.3855C42.2214 38.3855 43.24 38.7551 43.1907 39.1248C43.1332 39.519 42.3528 39.938 41.2193 39.9133C40.1186 39.8805 39.3136 39.3548 39.4696 39.4369C39.6175 39.4944 38.2868 38.7962 37.8761 39.2726C37.4653 39.708 37.5639 39.979 37.9664 40.2501C38.9932 40.8333 42.9607 40.628 44.1436 39.3137C44.1436 39.3137 44.6118 38.7798 43.8971 38.3444C43.1825 37.9337 41.1371 37.6873 40.3403 37.6462C39.5764 37.6051 36.7343 37.6544 36.3236 36.8987C36.3236 36.8987 35.9129 36.3894 36.3646 34.9437C36.8411 33.4323 40.1514 32.849 41.5807 32.7176C41.5807 32.7176 45.5154 32.578 46.2382 33.383C46.23 33.383 46.3286 33.5719 46.2053 33.843ZM35.0339 42.7062C34.5575 43.0594 33.5471 42.9033 33.2596 42.509C32.9721 42.1558 32.8736 40.7512 32.9311 38.5498C32.9886 36.3237 33.0379 33.5637 33.5143 33.1283C34.0236 32.6848 34.3357 33.0708 34.5329 33.3748C34.7464 33.6705 35.0011 33.999 35.0586 34.6973C35.1078 35.3955 35.2721 39.059 35.2721 39.059C35.2721 39.059 35.4857 42.3612 35.0339 42.7062ZM36.0607 30.894C34.6725 31.354 33.7196 31.198 32.9146 30.853C32.5614 31.469 32.3561 31.658 32.085 31.699C31.6907 31.7401 31.3375 31.1076 31.2718 30.9023C31.2061 30.7462 31.0171 30.4833 31.2471 29.859C30.4586 29.1526 30.4011 28.1998 30.5325 27.559C30.7296 26.8198 32.0603 24.0105 36.11 23.6819C36.11 23.6819 38.0896 23.534 38.4264 24.5937H38.4839C38.4839 24.5937 40.4061 24.6019 40.365 26.3105C40.3404 28.0273 38.2293 30.163 36.0607 30.894ZM32.2821 27.0908C31.8714 27.748 31.855 28.1423 32.0439 28.4133C32.5121 27.6987 33.3664 26.5733 34.6232 25.719C33.6539 25.8012 32.8407 26.2201 32.2821 27.0908ZM37.8761 25.9901C36.6028 26.179 34.6314 27.8876 33.695 29.284C35.1325 29.5469 37.6707 29.4483 38.7961 27.1565C38.7878 27.1565 39.33 25.7355 37.8761 25.9901ZM72.4418 39.2233C71.6779 40.554 69.5339 43.3305 66.6753 42.6815C65.7307 44.9733 64.9421 47.2815 64.4903 50.748C64.4903 50.748 64.3918 51.4215 63.8332 51.1833C63.2828 50.9862 62.3628 50.0662 62.1821 48.793C61.985 47.1173 62.7325 44.2833 64.2521 41.0387C63.8086 40.3158 63.5046 39.2808 63.7675 37.8105C63.7675 37.8105 64.1536 35.0833 66.8889 32.619C66.8889 32.619 67.2175 32.3315 67.4064 32.4219C67.62 32.5123 67.5214 33.3994 67.3489 33.8265C67.1764 34.2537 65.9525 36.373 65.9525 36.373C65.9525 36.373 65.1886 37.8023 65.4021 38.9276C66.8396 36.718 70.1089 32.2576 72.1378 33.6623C72.8196 34.1469 73.1318 35.2065 73.1318 36.3483C73.1236 37.3587 72.8854 38.4265 72.4418 39.2233ZM71.8503 35.724C71.8503 35.724 71.7354 34.8451 70.8811 35.8144C70.1418 36.6276 68.8111 38.1637 67.735 40.2419C68.8603 40.1187 69.9446 39.5026 70.2732 39.1905C70.8071 38.714 72.0475 37.4326 71.8503 35.724ZM31.97 36.8412C31.8139 38.829 31.05 42.1723 25.6368 43.8233C22.0636 44.8994 18.6875 44.3819 16.8475 43.9137C16.8064 44.6448 16.7243 44.9569 16.6093 45.0801C16.4532 45.2362 15.2868 45.9098 14.6461 44.9569C14.3586 44.5051 14.2107 43.6837 14.1286 42.9526C9.98857 41.0469 8.08285 38.3033 8.00892 38.1801C7.91857 38.0898 6.97392 37.104 7.91857 35.8965C8.80571 34.804 11.7054 33.7115 14.3175 33.268C14.4079 31.0337 14.6707 29.3498 14.9829 28.5776C15.3607 27.6823 15.8371 28.4873 16.2479 29.0951C16.5929 29.5469 16.7982 31.4937 16.8146 33.0462C18.5232 32.964 19.5336 33.0873 21.4393 33.4323C23.92 33.884 25.5793 35.149 25.4314 36.5865C25.3246 37.9994 24.0268 38.5826 23.5339 38.6237C23.0164 38.6648 22.2114 38.2951 22.2114 38.2951C21.6611 38.0323 22.1704 37.8023 22.8357 37.5148C23.5586 37.1615 23.3943 36.8001 23.3943 36.8001C23.1232 36.0115 19.9032 35.4612 16.6996 35.4612C16.6832 37.2273 16.7736 40.1598 16.8146 41.8683C19.0571 42.2955 20.7329 42.2133 20.7329 42.2133C20.7329 42.2133 28.9143 41.9833 29.1607 36.759C29.4154 31.5265 21.0039 26.5076 14.7857 24.914C8.57571 23.2876 5.06 24.4212 4.75607 24.5773C4.4275 24.7415 4.73143 24.7908 4.73143 24.7908C4.73143 24.7908 5.06821 24.8401 5.65142 25.0373C6.26749 25.2344 5.79107 25.5548 5.79107 25.5548C4.73142 25.8915 3.54035 25.678 3.31035 25.1933C3.08035 24.7087 3.46643 24.2733 3.91 23.649C4.35357 22.9919 4.83821 23.0165 4.83821 23.0165C12.5186 20.3551 21.8746 25.1687 21.8746 25.1687C30.6393 29.6126 32.1343 34.8205 31.97 36.8412ZM8.78928 36.5701C7.91857 36.9973 8.51821 37.6133 8.51821 37.6133C10.1529 39.3712 12.1654 40.4719 14.0793 41.1537C14.3011 38.1226 14.2682 37.0548 14.2929 35.5269C11.3029 35.7323 9.57785 36.2087 8.78928 36.5701Z" fill="white"/>
<path d="M88.7061 35.9456V37.0299C88.7061 37.2681 88.5171 37.457 88.2789 37.457H83.1121C83.1121 37.7281 83.1204 37.9663 83.1204 38.1881C83.1204 39.7899 83.0546 41.096 82.8986 42.5663C82.8739 42.7881 82.6932 42.9524 82.4796 42.9524H81.3625C81.2475 42.9524 81.1407 42.9031 81.0668 42.821C80.9929 42.7388 80.9518 42.6238 80.9682 42.5088C81.1243 41.0467 81.1982 39.757 81.1982 38.1881C81.1982 37.9581 81.1982 37.7199 81.19 37.457H76.0807C75.8425 37.457 75.6536 37.2681 75.6536 37.0299V35.9456C75.6536 35.7074 75.8425 35.5185 76.0807 35.5185H81.1161C81.0093 33.7524 80.7957 32.052 80.4507 30.327C80.4343 30.2203 80.4589 30.1135 80.5246 30.0313C80.5904 29.9492 80.6889 29.8999 80.7957 29.8999H82.0032C82.1921 29.8999 82.3482 30.0313 82.3893 30.2203C82.7261 32.0028 82.9396 33.736 83.0464 35.5185H88.2789C88.5089 35.5185 88.7061 35.7156 88.7061 35.9456Z" fill="white"/>
<path d="M81.6746 27.3454C79.005 20.7822 74.4953 15.1882 68.6303 11.1632C62.6257 7.04788 55.5861 4.87109 48.2753 4.87109C36.1839 4.87109 24.9632 10.8757 18.2686 20.9382C18.1946 21.045 18.1782 21.1847 18.2193 21.3079C18.2603 21.4393 18.3589 21.5297 18.4821 21.5707L19.4186 21.8911C19.4761 21.9075 19.5336 21.9157 19.5828 21.9157C19.7553 21.9157 19.9196 21.8254 20.0182 21.6857C23.0903 17.1679 27.2468 13.414 32.0439 10.8182C36.9971 8.14038 42.6075 6.71931 48.2671 6.71931C55.1096 6.71931 61.7057 8.74002 67.3571 12.5515C72.8689 16.2725 77.1485 21.4722 79.736 27.5754C79.81 27.7561 79.9907 27.8793 80.1878 27.8793H81.305C81.4364 27.8793 81.5596 27.8136 81.6253 27.7068C81.7075 27.6 81.7239 27.4686 81.6746 27.3454ZM19.5828 21.6365C19.5582 21.6365 19.5336 21.6282 19.5089 21.62C19.5336 21.6282 19.5582 21.6365 19.5828 21.6365C19.5911 21.6365 19.5993 21.6365 19.5993 21.6365C19.5993 21.6365 19.5911 21.6365 19.5828 21.6365ZM79.9578 27.7314C79.9825 27.7479 80.0071 27.7643 80.0318 27.7725C80.0071 27.7561 79.9825 27.7479 79.9578 27.7314Z" fill="url(#paint0_radial_2603_1750)"/>
<defs>
<radialGradient id="paint0_radial_2603_1750" cx="0" cy="0" r="1" gradientUnits="userSpaceOnUse" gradientTransform="translate(80.6252 27.8379) scale(62.4388 62.4388)">
<stop offset="0.00708621" stop-color="white"/>
<stop offset="0.0300991" stop-color="#CBFFFF"/>
<stop offset="0.0570069" stop-color="#96FFFF"/>
<stop offset="0.0842769" stop-color="#68FFFF"/>
<stop offset="0.1113" stop-color="#43FFFF"/>
<stop offset="0.1382" stop-color="#25FFFF"/>
<stop offset="0.1647" stop-color="#11FFFF"/>
<stop offset="0.1908" stop-color="#04FFFF"/>
<stop offset="0.2159" stop-color="#00FFFF"/>
<stop offset="1" stop-color="#0000FF" stop-opacity="0"/>
</radialGradient>
</defs>
</svg>
